<?xml version="1.0" encoding="UTF-8"?>
<mxfile host="app.diagrams.net">
  <diagram name="Class Diagram">
    <mxGraphModel>
      <root>
        <mxCell id="0" />
        <mxCell id="1" parent="0" />

        <!-- Patient Class -->
        <mxCell id="patient" value="Patient" style="shape=swimlane;" vertex="1" parent="1">
          <mxGeometry width="180" height="240" as="geometry" />
        </mxCell>
        <mxCell id="patientAttributes" value="Attributes:&#10;id&#10;firstName&#10;lastName&#10;address&#10;phoneNumbers&#10;emailAddress&#10;emergencyContact" style="text;align=left;" vertex="1" parent="patient">
          <mxGeometry width="180" height="120" y="30" as="geometry" />
        </mxCell>
        <mxCell id="patientMethods" value="Methods:&#10;scheduleAppointment()&#10;changeAppointment()&#10;cancelAppointment()&#10;viewAppointment()&#10;getDetails()&#10;setDetails()" style="text;align=left;" vertex="1" parent="patient">
          <mxGeometry width="180" height="120" y="150" as="geometry" />
        </mxCell>

        <!-- Appointment Class -->
        <mxCell id="appointment" value="Appointment" style="shape=swimlane;" vertex="1" parent="1">
          <mxGeometry width="180" height="140" as="geometry" />
        </mxCell>
        <mxCell id="appointmentAttributes" value="Attributes:&#10;id&#10;dateTime&#10;reason&#10;notes" style="text;align=left;" vertex="1" parent="appointment">
          <mxGeometry width="180" height="60" y="30" as="geometry" />
        </mxCell>
        <mxCell id="appointmentMethods" value="Methods:&#10;reschedule()&#10;cancel()" style="text;align=left;" vertex="1" parent="appointment">
          <mxGeometry width="180" height="60" y="90" as="geometry" />
        </mxCell>

        <!-- UserAccount Class -->
        <mxCell id="userAccount" value="UserAccount" style="shape=swimlane;" vertex="1" parent="1">
          <mxGeometry width="180" height="160" as="geometry" />
        </mxCell>
        <mxCell id="userAccountAttributes" value="Attributes:&#10;username&#10;password&#10;securityQuestion&#10;securityAnswer&#10;role" style="text;align=left;" vertex="1" parent="userAccount">
          <mxGeometry width="180" height="80" y="30" as="geometry" />
        </mxCell>
        <mxCell id="userAccountMethods" value="Methods:&#10;login()&#10;logout()" style="text;align=left;" vertex="1" parent="userAccount">
          <mxGeometry width="180" height="50" y="110" as="geometry" />
        </mxCell>

        <!-- Staff Class -->
        <mxCell id="staff" value="Staff" style="shape=swimlane;" vertex="1" parent="1">
          <mxGeometry width="180" height="80" as="geometry" />
        </mxCell>
        <mxCell id="staffMethods" value="Methods:&#10;viewPatientDetails()" style="text;align=left;" vertex="1" parent="staff">
          <mxGeometry width="180" height="50" y="30" as="geometry" />
        </mxCell>

        <!-- Relationships -->
        <mxCell id="relationship1" value="schedules" edge="1" parent="1" source="patient" target="appointment">
          <mxGeometry relative="1" as="geometry" />
        </mxCell>
        <mxCell id="relationship2" value="has" edge="1" parent="1" source="staff" target="patient">
          <mxGeometry relative="1" as="geometry" />
        </mxCell>

      </root>
    </mxGraphModel>
  </diagram>
</mxfile>
